<svg xmlns="http://www.w3.org/2000/svg" version="1.1" xmlns:xlink="http://www.w3.org/1999/xlink" width="366" height="366"><svg version="1.1" xmlns="http://www.w3.org/2000/svg" width="366" height="366">
<path d="M0 0 C33.99 0 67.98 0 103 0 C103 48.18 103 96.36 103 146 C69.01 146 35.02 146 0 146 C0 97.82 0 49.64 0 0 Z " fill="#72A6AE" transform="translate(201,172)"></path>
<path d="M0 0 C33.99 0 67.98 0 103 0 C103 48.18 103 96.36 103 146 C69.01 146 35.02 146 0 146 C0 97.82 0 49.64 0 0 Z " fill="#72A6AF" transform="translate(68,172)"></path>
<path d="M0 0 C0.81726563 0.30550781 1.63453125 0.61101563 2.4765625 0.92578125 C10.28775981 4.33543087 16.05603127 10.06446243 22 16 C22.67160156 16.66 23.34320313 17.32 24.03515625 18 C34.07188406 28.60829545 39.11103485 42.5247898 44 56 C44.34611328 55.09459473 44.34611328 55.09459473 44.69921875 54.17089844 C53.67811893 30.8985119 64.93643868 11.4473606 88 0 C88.62261719 -0.34417969 89.24523437 -0.68835937 89.88671875 -1.04296875 C97.68438403 -4.77533438 108.33183322 -4.15295008 116.55859375 -2.12109375 C124.35318484 0.82742198 128.51546516 4.71776087 132.625 11.80078125 C135.63189184 18.79693016 134.99194089 27.30159492 132.375 34.375 C126.52230135 46.83492639 116.75790116 54.25438581 104 59 C99.05 60.485 99.05 60.485 94 62 C122.71 62.33 151.42 62.66 181 63 C181 79.5 181 96 181 113 C140.41 113 99.82 113 58 113 C58 96.5 58 80 58 63 C62.62 62.67 67.24 62.34 72 62 C86.87396371 60.10263789 102.55047209 56.30334695 113.3125 45.0625 C118.54680653 37.9667957 120.79260009 30.64977008 120.44140625 21.8359375 C119.61578022 16.53147294 117.45024054 13.03416196 113.34375 9.625 C106.66181094 5.54788464 98.51778333 6.02450022 91.10546875 7.625 C76.19607331 12.40283201 65.28543259 24.22907317 57 37 C56.48566406 37.75796875 55.97132813 38.5159375 55.44140625 39.296875 C50.669365 46.68424275 47.88795557 54.74577238 45 63 C42.10070705 60.52682792 41.03870001 58.02890724 39.6875 54.5 C31.72906809 34.88646811 18.89563869 17.07072648 -0.8125 8.0625 C-7.78417462 5.76256611 -16.77104936 5.6004243 -23.5625 8.5 C-27.77098793 11.11559788 -30.37015342 14.31884246 -32 19 C-33.62752276 28.50423595 -31.44282937 36.14564789 -26 44 C-11.72646791 60.69468349 9.55622515 61.14147501 30 63 C30 79.5 30 96 30 113 C-10.59 113 -51.18 113 -93 113 C-93 96.83 -93 80.66 -93 64 C-63.63 63.67 -34.26 63.34 -4 63 C-8.62 61.68 -13.24 60.36 -18 59 C-31.0201448 52.91449754 -39.99153269 45.11660797 -45.3125 31.6875 C-46.88409063 23.25805936 -47.00099283 15.87160241 -42.6875 8.26171875 C-32.4468037 -5.46365893 -14.95315109 -5.63618772 0 0 Z " fill="#72A6AF" transform="translate(142,49)"></path>
<path d="M0 0 C4.94788756 4.23823038 8.57508766 9.76913499 9.43359375 16.296875 C9.44655835 27.7575813 6.91684155 36.51766977 -1 45 C-9.77784274 53.22922757 -19.59510867 56.5785326 -31 60 C-2.29 60.33 26.42 60.66 56 61 C56 77.5 56 94 56 111 C15.41 111 -25.18 111 -67 111 C-67 94.5 -67 78 -67 61 C-66.67 61 -66.34 61 -66 61 C-66 77.17 -66 93.34 -66 110 C-26.07 110 13.86 110 55 110 C55 94.16 55 78.32 55 62 C22.33 62 -10.34 62 -44 62 C-44 61.34 -44 60.68 -44 60 C-45.65 60 -47.3 60 -49 60 C-49 59.67 -49 59.34 -49 59 C-48.04222656 58.88785156 -47.08445313 58.77570313 -46.09765625 58.66015625 C-33.57830196 56.91434095 -20.61955471 52.4526088 -11.6875 43.0625 C-6.45319347 35.9667957 -4.20739991 28.64977008 -4.55859375 19.8359375 C-5.38421978 14.53147294 -7.54975946 11.03416196 -11.65625 7.625 C-18.33818906 3.54788464 -26.48221667 4.02450022 -33.89453125 5.625 C-48.80392669 10.40283201 -59.71456741 22.22907317 -68 35 C-68.51433594 35.75796875 -69.02867187 36.5159375 -69.55859375 37.296875 C-74.330635 44.68424275 -77.11204443 52.74577238 -80 61 C-82.38290768 58.73912802 -83.68471805 57.36300742 -84 54 C-83.34 53.01 -82.68 52.02 -82 51 C-81.67 51.99 -81.34 52.98 -81 54 C-80.76925781 53.39639648 -80.53851563 52.79279297 -80.30078125 52.17089844 C-71.32188107 28.8985119 -60.06356132 9.4473606 -37 -2 C-36.37738281 -2.34417969 -35.75476563 -2.68835937 -35.11328125 -3.04296875 C-24.58595636 -8.08189055 -9.56357731 -6.04175202 0 0 Z " fill="#7CAEB5" transform="translate(267,51)"></path>
<path d="M0 0 C1 3 1 3 -0.07421875 5.53125 C-0.60660156 6.5109375 -1.13898438 7.490625 -1.6875 8.5 C-4.66471056 14.19070549 -6.96407951 19.91619053 -9 26 C-11.38290768 23.73912802 -12.68471805 22.36300742 -13 19 C-12.01 17.515 -12.01 17.515 -11 16 C-10.67 16.99 -10.34 17.98 -10 19 C-9.52949219 17.79601562 -9.05898437 16.59203125 -8.57421875 15.3515625 C-7.9458073 13.77584424 -7.31687383 12.20033411 -6.6875 10.625 C-6.37876953 9.8309375 -6.07003906 9.036875 -5.75195312 8.21875 C-5.44580078 7.45820312 -5.13964844 6.69765625 -4.82421875 5.9140625 C-4.54666748 5.2123291 -4.26911621 4.5105957 -3.9831543 3.78759766 C-3 2 -3 2 0 0 Z " fill="#78ACB3" transform="translate(196,86)"></path>
<path d="M0 0 C1.1875 1.5 1.1875 1.5 2 4 C1.27101296 6.78824238 0.1843275 9.37665092 -1 12 C-3.38290768 9.73912802 -4.68471805 8.36300742 -5 5 C-4.34 4.01 -3.68 3.02 -3 2 C-2.67 2.99 -2.34 3.98 -2 5 C-1.34 3.35 -0.68 1.7 0 0 Z " fill="#9AC4C8" transform="translate(188,100)"></path>
<path d="M0 0 C-0.33 1.32 -0.66 2.64 -1 4 C-2.45742463 4.08096803 -3.91612807 4.13917774 -5.375 4.1875 C-6.18710938 4.22230469 -6.99921875 4.25710937 -7.8359375 4.29296875 C-8.55007812 4.19628906 -9.26421875 4.09960938 -10 4 C-10.66 3.01 -11.32 2.02 -12 1 C-7.67265609 -1.22923777 -4.71599818 -0.92470553 0 0 Z " fill="#84B3B9" transform="translate(150,110)"></path>
<path d="M0 0 C0.66 0.99 1.32 1.98 2 3 C-0.64 3.33 -3.28 3.66 -6 4 C-6 3.34 -6 2.68 -6 2 C-7.65 2 -9.3 2 -11 2 C-11 1.67 -11 1.34 -11 1 C-3.52173913 -0.39130435 -3.52173913 -0.39130435 0 0 Z " fill="#89B7BD" transform="translate(229,109)"></path>
</svg><style>@media (prefers-color-scheme: light) { :root { filter: none; } }
@media (prefers-color-scheme: dark) { :root { filter: none; } }
</style></svg>